<svg width="32" height="32" viewBox="0 0 32 32" fill="none" xmlns="http://www.w3.org/2000/svg">
<path d="M19.2074 19.16C19.4207 19.16 19.5887 19.2213 19.7114 19.344C19.8394 19.4613 19.9034 19.6187 19.9034 19.816V21H11.9674V20.344C11.9674 20.2107 11.994 20.072 12.0474 19.928C12.106 19.7787 12.1967 19.6453 12.3194 19.528L15.8314 16.008C16.1247 15.7093 16.386 15.424 16.6154 15.152C16.85 14.88 17.0447 14.6107 17.1994 14.344C17.354 14.0773 17.4714 13.808 17.5514 13.536C17.6367 13.2587 17.6794 12.968 17.6794 12.664C17.6794 12.3867 17.6394 12.144 17.5594 11.936C17.4794 11.7227 17.3647 11.544 17.2154 11.4C17.0714 11.256 16.8954 11.1493 16.6874 11.08C16.4847 11.0053 16.2554 10.968 15.9994 10.968C15.7647 10.968 15.546 11.0027 15.3434 11.072C15.146 11.136 14.97 11.2293 14.8154 11.352C14.6607 11.4693 14.53 11.608 14.4234 11.768C14.3167 11.928 14.2367 12.104 14.1834 12.296C14.0927 12.5413 13.9754 12.704 13.8314 12.784C13.6874 12.864 13.4794 12.8827 13.2074 12.84L12.1674 12.656C12.2474 12.1013 12.402 11.616 12.6314 11.2C12.8607 10.7787 13.146 10.4293 13.4874 10.152C13.834 9.86933 14.2287 9.65867 14.6714 9.52C15.1194 9.376 15.5994 9.304 16.1114 9.304C16.6447 9.304 17.1327 9.384 17.5754 9.544C18.018 9.69867 18.3967 9.92 18.7114 10.208C19.026 10.496 19.2714 10.8427 19.4474 11.248C19.6234 11.6533 19.7114 12.104 19.7114 12.6C19.7114 13.0267 19.6474 13.4213 19.5194 13.784C19.3967 14.1467 19.2287 14.4933 19.0154 14.824C18.8074 15.1547 18.562 15.4747 18.2794 15.784C17.9967 16.0933 17.7007 16.408 17.3914 16.728L14.7834 19.392C15.034 19.3173 15.282 19.2613 15.5274 19.224C15.778 19.1813 16.0154 19.16 16.2394 19.16H19.2074Z" fill="#548BC5"/>
<circle cx="16" cy="16" r="15" stroke="#548BC5" stroke-width="2"/>
</svg>
